<?xml version="1.0" encoding="UTF-8"?><svg id="Layer_2" xmlns="http://www.w3.org/2000/svg" width="97.265386" height="97.265386" xmlns:xlink="http://www.w3.org/1999/xlink" viewBox="0 0 97.265386 97.265386"><defs><clipPath id="clippath"><circle cx="48.632693" cy="48.632693" r="48.632693" fill="none"/></clipPath></defs><g id="LOGOS"><g id="CON"><g clip-path="url(#clippath)"><circle cx="48.632693" cy="48.632693" r="48.632693" fill="#0087dc"/><path d="M23.214867,49.501229c1.46874-.227207-3.326981,2.726501-7.303127,5.931763-4.471137,3.578532-5.68021,4.966126-5.144648,7.473533s3.976147,6.589043,5.793814,6.540357c1.939386-.056802,4.31696-1.793323,4.31696-1.793323l5.233908-3.546073c1.111699-.754657-.454416,2.767074.70597,3.992378,1.622917,1.712178,2.288313,1.363251,3.529845.973748s2.718387-.981864,6.199543-2.190939c3.797626-1.322678,5.826273-2.182823,6.718876-2.26397s1.111697.641053,1.825782,1.622917c0,0,2.255854,3.781397,2.945596,3.984262,1.452512.608594,4.511711-.470647,9.080221-2.702159,4.56851-2.231511,5.607182-2.831992,5.607182-2.831992l3.570419-2.255854c-.706782,1.002152-1.277234,2.093562-1.695945,3.245834-.511217,1.704062-1.087352,2.888794-.730314,4.219585.321341,1.232603,1.377855,2.133323,2.645357,2.255854,1.184729.129836,2.88068-.74654,7.432958-3.408127,3.132231-1.817669,7.968523-5.461116,8.585233-5.915534s.162289.243437.162289.243437c-1.021629,1.721916-2.191747,3.350514-3.497385,4.868752-2.077332,2.588555.957521,2.645357,2.361347,1.127927.98998-.957521,7.514108-6.9542,7.781885-10.419129,0-2.929366-2.88068-3.245834-4.665887-2.255854s-3.034853,1.890697-5.047273,3.051083c-1.777096,1.071125-3.124114,1.842011-4.057293,2.434376s-.25155-.811459-.25155-.811459c1.833898-2.434376,6.085939-7.303127,6.970426-9.550868s-2.369458-5.753242-5.087843-4.187126c-2.184448,1.188787-4.471139,2.179578-6.83248,2.961825-2.499294.876377-4.657771,1.931272-3.04297,0s2.434376-2.742731,3.408124-3.781397c2.117907-2.215282,4.682113-4.81195,5.136534-6.378065.689739-2.361344-.576135-3.408127-1.15227-3.830084-1.063009-.754657-2.823879-.88449-3.245834-1.96373-.292126-.754657-.584251-2.969938-.925062-3.862543-.566397-1.613991-2.130079-2.661584-3.838202-2.572324-1.678097.032458-3.318052.505539-4.755148,1.371365,0,0-4.536054,3.294521-6.369949,4.544168-2.588552,1.777095,1.817669-3.099772,1.817669-3.099772,0,0,4.763261-4.763262,3.245834-6.889283-1.025684-1.559623-2.190939-3.023495-3.481158-4.373762-1.866354-1.817667-6.767565,2.109792-6.767565,2.109792,0,0-1.817669-3.245834-3.02674-4.057293-.811459-.543677-2.6697-1.095469-11.563285,3.935574-2.815761,1.622917-4.868752,2.945595-8.763752,5.3962-2.012417,1.257761-4.40622,2.775188-7.773773,4.958012,0,0-1.095469.568022-.430073-.365157.905588-1.260195,1.898001-2.456286,2.969938-3.578532,3.529844-3.919345,8.033441-6.1752,9.396691-7.116492.446302-.308354,1.022438-2.044876.259667-1.785209-2.247741.58425-8.974732,3.951803-13.470213,8.698837-3.140345,3.189033-6.808138,7.140837-6.353721,10.621993.193939,1.26831,1.289408,2.201487,2.572324,2.190939,1.525542.089261,2.758959-.113604,6.045366-1.736521,1.842011-.908834,5.087845-2.84822,5.298824-2.54798s-.730312.811459-2.345115,1.882584c-1.136042.762772-1.874469,1.209073-5.071616,3.245834-2.564217,1.62292-7.376166,4.690234-7.814354,6.62962-.438188,1.939386.519333,4.868752,3.43247,4.162783" fill="#fff"/><path d="M65.986849,77.675072c-6.962316-.259667-18.06307-.592368-20.286465-1.51743-1.525543-.673512,1.209075-3.716482.454418-4.706462s-3.04297-5.128418-3.968032-4.91744c-1.622917.348927-3.197146,5.542261-3.724595,9.104563-.170406,1.127927-2.190939.933179-6.012908,1.241531-2.296428.186638-7.716971.446305-7.716971.446305l-4.755148.324585c-.616709.048686-3.172803.186638-4.803835.405729s-.981865,2.036763,1.111698,1.988071c20.692193,0,23.864996.462531,24.822518-1.460628,1.103584.892603,2.726501,1.468738,6.848709,1.428169h13.794796c5.258254,0,14.443959-.219091,16.285974-.308352s2.255854-1.314565-.24344-1.411936" fill="#fff"/></g></g></g></svg>