<?xml version="1.0" encoding="UTF-8"?><svg id="Layer_2" xmlns="http://www.w3.org/2000/svg" width="97.265386" height="97.265386" xmlns:xlink="http://www.w3.org/1999/xlink" viewBox="0 0 97.265386 97.265386"><defs><clipPath id="clippath"><circle cx="48.632693" cy="48.632693" r="48.632693" fill="none"/></clipPath></defs><g id="LOGOS"><g id="GREEN"><g clip-path="url(#clippath)"><circle cx="48.632693" cy="48.632693" r="48.632693" fill="#02a95b"/><path d="M62.308727,34.547145c8.39981,7.801346,9.166203,20.415468,1.711787,28.174429s-20.306806,7.724601-28.706616-.076745-9.166203-20.415468-1.711787-28.174429,20.306806-7.724601,28.706616.076745Z" fill="#02a95b" fill-rule="evenodd"/><path d="M62.102878,32.719061c9.08936,7.430718,10.615311,20.567166,3.317285,29.258452-7.231681,8.757632-20.567166,9.819163-29.656526,2.388445-9.155706-7.430718-10.681657-20.50082-3.38363-29.258452,7.298027-8.691286,20.567166-9.752817,29.722872-2.388445ZM50.625073,42.869953c0,.398074.92884.398074,1.260568.46442.199037-.132691.066346-.331728.265383-.530766.066346-.066346.132691-.066346.199037-.132691.132691-.066346.331728-.265383.331728-.398074,0-.331728-.265383-.265383-.46442-.398074-.132691-.066346-.199037-.132691-.331728-.199037-.199037,0-.199037.132691-.398074.199037-.132691.066346-.265383.066346-.265383.132691-.199037.132691,0,.398074-.265383.597111-.199037,0-.331728.066346-.331728.265383ZM51.28853,43.599755c-.066346.066346-.132691.199037-.132691.331728s.199037.132691.398074.265383c.132691,0,.199037.066346.331728.132691.132691,0,.331728-.132691.530766-.066346.132691,0,.265383.132691.398074.132691.066346,0,.199037-.066346.331728-.066346h.46442c.199037-.132691.265383-.46442.132691-.663457.132691-.199037.066346-.597111.265383-.729803.132691-.066346.46442-.066346.597111-.199037.199037-.132691.132691-.398074,0-.663457-.199037,0-.331728-.132691-.530766-.132691-.132691,0-.199037.132691-.265383.066346s0-.132691,0-.265383c-.331728-.199037-.597111.132691-.729803.331728,0,.132691,0,.199037.066346.265383-.199037.132691-.132691.331728-.132691.46442h-.398074c-.132691.066346-.132691.265383-.199037.331728s-.199037.066346-.265383.132691-.066346.199037-.132691.199037c-.199037.199037-.530766,0-.729803.132691ZM50.35969,39.287285h.265383c.066346,0,.132691-.066346.265383-.066346h.331728c.199037-.066346.331728-.132691.46442-.066346.331728,0,.995185.46442.862494-.199037.331728-.398074.796148-.729803,1.194223-1.061531.066346,0,.132691-.132691.199037-.199037.199037-.066346.398074-.199037.46442-.398074-.066346-.066346-.265383,0-.265383-.066346-.199037-.331728-.066346-.796148-.132691-1.127877-.265383-.132691-.729803-.066346-1.061531-.066346-.132691-.066346-.331728-.132691-.46442-.066346-.066346,0-.265383.132691-.331728.199037-.132691.132691-.199037.398074-.331728.530766-.199037.265383-.597111.398074-.862494.597111-.265383.265383-.46442.46442-.729803.663457-.132691.132691-.265383.265383-.398074.331728-.132691.132691-.398074.132691-.597111.199037-.066346.066346-.066346.199037-.132691.265383-.066346.265383-.066346.597111-.199037.796148,0,.199037-.132691.398074-.066346.530766.265383,0,.331728-.132691.530766-.265383.066346,0,.132691,0,.265383-.066346.066346-.066346.199037-.199037.331728-.265383s.331728-.199037.398074-.199037ZM43.857812,54.414104c.132691.530766.398074.995185.530766,1.459605.331728,0,.663457.066346.995185.132691.132691.066346.265383.132691.398074.132691.066346.066346.132691,0,.199037,0,.132691,0,.265383.066346.398074.066346.265383.066346.46442,0,.597111.132691.132691.066346.132691.199037.199037.265383,0,.066346.066346.066346.132691.132691s.066346.132691.132691.199037c.066346.132691.199037.199037.265383.331728.066346.066346.066346.199037.132691.265383s.331728.265383.331728.398074c0,.066346-.132691.199037-.199037.331728,0,.066346,0,.199037-.066346.265383,0,.066346-.066346.132691-.066346.199037-.066346.066346-.066346.132691-.066346.265383-.066346.331728-.265383.663457-.199037,1.127877,0,.132691.066346.265383.066346.398074.066346.066346,0,.199037,0,.331728.066346.132691.066346.265383.066346.398074,0,.066346-.066346.199037-.132691.331728-.132691.398074-.132691.796148-.265383,1.194223.132691.199037.132691.530766.331728.729803,0,.331728.199037.597111.265383.92884.066346.066346.066346.199037.066346.331728.066346.331728.132691.729803.066346,1.127877-.066346.265383-.265383.530766-.265383.796148,0,.132691.066346.265383,0,.331728,0,.398074-.132691.729803-.066346,1.127877h.663457c.132691,0,.199037.066346.331728.066346h1.592297c.066346,0,.199037,0,.331728-.066346h.597111c.132691,0,.265383-.066346.398074-.066346h.066346c.132691,0,.265383,0,.398074-.066346h.066346c.132691,0,.265383,0,.398074-.066346.265383-.398074.663457-.729803.862494-1.194223.265383-.199037.331728-.530766.530766-.663457.066346-.132691.132691-.199037.199037-.331728.199037-.132691.398074-.199037.597111-.398074.199037-.066346.530766-.265383.597111-.46442.132691-.199037.132691-.530766.265383-.796148.066346-.066346.132691-.132691.132691-.199037.066346-.066346.066346-.132691.066346-.199037.066346-.132691.132691-.199037.132691-.265383.132691-.199037.199037-.46442.265383-.597111s.132691-.199037.199037-.331728c.066346-.199037.066346-.398074.199037-.530766s.265383-.132691.398074-.199037c.199037-.066346.331728-.265383.530766-.398074.066346,0,.199037,0,.265383-.066346,0,0,.066346-.132691.132691-.132691.265383-.199037.331728-.46442.597111-.663457.331728-.066346.663457-.132691.92884-.331728.066346-.066346.066346-.132691.132691-.132691.199037-.199037.398074-.331728.597111-.46442.132691-.132691.199037-.199037.331728-.265383.132691-.132691.331728-.199037.331728-.331728-.132691-.132691-.398074-.199037-.597111-.199037-.199037-.066346-.46442-.132691-.663457-.199037h-.199037c-.199037,0-.331728-.132691-.530766-.066346-.199037-.066346-.199037-.265383-.331728-.398074-.066346-.199037-.265383-.398074-.331728-.530766-.066346-.066346-.066346-.132691-.132691-.199037l-.199037-.199037v-.265383c-.066346-.199037-.066346-.398074-.132691-.597111-.066346-.132691-.132691-.331728-.199037-.46442,0-.066346,0-.199037-.066346-.331728,0-.066346-.066346-.066346-.066346-.132691s0-.132691-.066346-.199037c-.066346-.132691-.199037-.265383-.398074-.46442-.132691-.265383-.199037-.46442-.398074-.729803-.132691-.199037-.265383-.398074-.398074-.663457,0-.199037-.265383-.331728-.132691-.530766.265383,0,.331728.265383.597111.331728.199037-.199037,0-.663457.199037-.796148.132691.066346.199037.199037.331728.331728,0,.199037.199037.331728.265383.46442,0,.066346,0,.199037.066346.265383,0,.132691.066346.199037.132691.265383v.199037c.066346.132691.132691.199037.132691.265383.066346.066346.066346.199037.066346.265383l.132691.132691c0,.066346,0,.199037.066346.199037.066346.132691.132691.199037.199037.265383.331728.46442.729803.796148.796148,1.39326.066346.265383,0,.530766.066346.796148v.597111c.066346.132691.199037.199037.398074.265383.132691,0,.398074.132691.530766.132691.066346,0,.199037-.066346.265383-.066346.265383-.066346.530766,0,.796148,0,.066346-.066346.199037-.132691.265383-.132691.132691-.066346.331728-.066346.398074-.132691.132691-.066346.265383-.199037.398074-.331728.132691-.066346.331728-.132691.46442-.265383l.199037-.199037c.066346-.066346.132691-.066346.199037-.132691.132691-.132691.265383-.331728.398074-.398074.066346-.132691.265383-.199037.331728-.398074,0,0-.066346-.066346-.066346-.132691-.066346-.199037-.132691-.398074-.132691-.530766-.066346-.132691,0-.199037-.066346-.265383-.066346-.265383-.331728-.530766-.729803-.46442-.066346,0-.199037.132691-.265383.132691-.46442.199037-.729803-.199037-.92884-.398074l-.265383-.265383c-.066346-.066346-.199037-.132691-.199037-.265383.132691-.132691.331728,0,.46442.066346.132691,0,.331728.066346.530766.132691.265383.066346.597111.199037.995185.265383h.331728c.265383,0,.46442.199037.729803.199037.132691,0,.265383-.066346.398074-.132691h.398074c.132691-.066346.199037-.132691.265383-.066346.132691,0,.199037.132691.265383.199037.199037.199037.663457.265383.796148.46442,0,.331728.066346.663457.066346.92884.066346.199037.132691.331728.199037.530766,0,.132691,0,.199037.066346.265383,0,.066346.132691.199037.199037.265383.066346.199037.066346.331728.132691.331728h.199037c3.715359-7.762446,1.724988-17.448918-5.307656-23.486376-.132691,0-.265383.066346-.331728,0-.066346,0-.199037-.265383-.331728-.331728-.066346,0-.199037.066346-.265383.066346-.199037,0-.398074-.132691-.663457-.132691h-.199037c-.132691,0-.199037-.132691-.265383-.132691-.132691,0-.199037.132691-.331728.066346-.132691.199037-.46442.199037-.663457.265383-.199037.398074.199037.46442.331728.729803-.066346.46442.331728.530766.663457.663457.199037.199037.530766.199037.729803.398074,0,.331728.199037.663457.199037.92884,0,.132691-.066346.331728-.066346.46442.066346.132691.199037.265383.199037.398074,0,.265383-.199037.46442-.066346.729803-.132691.265383-.132691.46442-.199037.663457,0,.132691-.066346.265383-.066346.331728-.066346.066346-.132691.066346-.199037.199037,0,.066346-.066346.132691-.066346.265383,0,.066346-.066346.132691-.066346.199037-.066346.199037-.132691.331728-.199037.46442,0,.066346.066346.132691,0,.265383,0,.132691-.199037.398074-.265383.530766-.066346.066346-.066346.132691-.132691.199037-.066346.132691-.132691.132691-.199037.265383-.066346.066346-.132691.331728-.132691.530766,0,.132691.132691.265383.066346.398074-.199037.132691-.331728,0-.46442-.132691-.066346,0-.199037-.066346-.265383-.066346-.066346-.066346-.066346-.132691-.132691-.199037-.199037-.066346-.398074-.132691-.530766-.199037-.199037-.132691-.398074-.265383-.597111-.265383-.132691.066346-.199037.199037-.331728.265383-.199037.066346-.265383.265383-.46442.398074-.066346.066346-.199037.132691-.331728.199037-.066346.132691-.199037.199037-.265383.265383-.132691.066346-.199037.066346-.331728.132691-.066346.066346-.132691.199037-.199037.265383s-.331728.199037-.398074.265383c0,.199037.265383.199037.265383.331728-.265383.199037-.530766.331728-.729803.597111-.066346-.066346-.132691-.132691-.265383-.132691-.199037.132691-.331728.265383-.46442.398074-.066346.066346-.066346.132691-.132691.199037-.132691,0-.265383,0-.46442.066346-.132691,0-.331728.066346-.46442,0-.132691,0-.199037-.132691-.331728-.199037-.066346,0-.132691.066346-.265383.066346-.199037-.066346-.331728-.265383-.530766-.265383-.066346.066346-.199037.398074-.199037.530766,0,.066346.199037.199037.199037.265383.066346.132691.066346.331728.066346.398074,0,.132691,0,.265383-.199037.265383-.265383.066346-.199037-.265383-.331728-.398074-.066346-.066346-.132691-.199037-.199037-.199037-.199037-.132691-.331728,0-.46442.132691l-.199037.199037c-.066346.066346-.066346.132691-.132691.199037l-.265383.265383c-.132691.132691-.132691.265383-.199037.331728-.066346.199037-.265383.265383-.265383.530766.199037.265383.46442.331728.46442.796148.066346.132691.265383.199037.46442.331728.132691.066346.331728.265383.530766.199037.132691,0,.199037-.199037.331728-.265383.066346-.066346.199037-.132691.265383-.199037.132691-.066346.265383-.132691.331728-.199037.199037-.132691.199037-.398074.597111-.331728.066346.132691.066346.331728.199037.331728.331728.066346.597111-.132691.729803.132691,0,.132691.132691.331728.132691.46442v.199037c0,.066346.066346.199037.132691.331728v.265383c.066346.132691.199037.199037.199037.331728,0,.199037-.530766.398074-.530766.597111-.066346.199037.066346.46442.265383.46442.132691,0,.199037-.132691.331728-.265383.199037-.132691.265383-.265383.597111-.132691.331728-.199037.132691-.729803.066346-1.194223-.066346-.132691-.331728-.265383-.132691-.46442.132691.066346.199037.199037.199037.398074.132691.066346.199037.132691.265383.265383.066346.199037,0,.398074,0,.597111s.132691.663457.265383.729803h.265383c.066346,0,.199037.066346.331728,0,.331728-.066346.265383-.46442.331728-.729803.132691-.066346.398074-.066346.46442.066346-.066346.199037-.199037.199037-.265383.331728-.199037.331728-.199037.796148.066346.995185.132691.132691.663457.066346.663457.265383,0,.132691-.132691.199037-.199037.331728s-.066346.398074-.265383.398074c-.199037-.066346-.398074-.199037-.663457-.265383-.199037-.066346-.398074,0-.597111-.066346-.132691,0-.199037-.066346-.331728-.066346-.398074-.066346-.729803-.132691-1.061531-.265383-.132691-.199037-.265383-.398074-.530766-.398074-.132691,0-.199037.132691-.331728.132691-.199037-.066346-.331728-.331728-.46442-.46442-.132691-.199037-.265383-.398074-.398074-.46442-.066346-.132691-.199037-.132691-.265383-.331728,0-.132691.132691-.199037.132691-.331728,0-.199037-.132691-.265383-.199037-.398074-.132691-.066346-.265383-.199037-.398074-.199037-.199037-.066346-.46442-.066346-.663457-.132691-.132691,0-.199037-.132691-.331728-.199037-.199037-.066346-.398074-.066346-.530766-.199037-.132691-.530766-.530766-.132691-.729803,0-.265383.066346-.398074.265383-.729803.398074q-.066346.066346-.199037.132691c0,.265383-.132691.398074-.265383.530766,0,.132691,0,.331728-.199037.398074-.132691,0-.331728-.199037-.530766-.199037-.331728-.066346-.398074.066346-.663457.265383l-.995185.597111c-.199037.199037-.398074.331728-.663457.46442-.199037.132691-.597111.331728-.663457.46442-.066346.066346-.066346.199037-.066346.265383l-.199037.199037v.265383c-.066346.199037-.265383.398074-.265383.663457-.132691.132691-.199037.265383-.265383.46442,0,.132691.132691.265383.199037.46442.066346.132691.066346.331728.132691.530766,0,.066346.066346.199037.132691.265383ZM30.655018,56.072746l.066346.132691c.066346.199037.663457,1.39326.796148,1.525951.132691-.199037.265383-.46442.398074-.729803.199037-.132691.398074-.398074.663457-.530766.132691,0,.265383,0,.398074-.066346.066346,0,.132691-.066346.132691-.066346.066346-.066346.132691,0,.199037-.066346.066346,0,.132691,0,.132691-.066346h.199037c.199037-.066346.331728-.199037.46442-.265383.331728-.066346.663457,0,1.061531-.066346.331728-.066346.729803-.199037,1.127877-.199037h.46442c.066346,0,.132691-.066346.199037-.066346.265383-.066346.530766,0,.796148-.066346.199037.132691.331728.331728.530766.331728.132691.132691.265383.398074.46442.331728.066346,0,.265383-.132691.398074-.265383.199037-.265383.398074-.46442.597111-.663457.132691-.132691.265383-.265383.331728-.398074-.066346-.132691,0-.265383,0-.398074,0-.199037-.132691-.398074-.199037-.530766-.132691-.331728-.199037-.729803-.398074-1.061531,0-.066346-.066346-.132691-.066346-.199037l-.597111-1.194223c-.066346-.132691-.265383-.265383-.199037-.46442,0-.066346.132691-.066346.265383-.066346l.132691-.132691c.132691,0,.331728.066346.398074-.066346.066346-.199037,0-.398074.066346-.597111,0-.132691.066346-.265383.132691-.398074.066346-.265383-.066346-.597111-.066346-.862494-.132691-.331728-.199037-.398074-.530766-.530766-.066346-.132691-.066346-.398074-.132691-.663457.132691-.199037.46442-.46442.530766-.796148.066346-.132691,0-.265383,0-.398074,0-.331728.265383-.530766.199037-.729803,0-.066346-.132691-.132691-.199037-.265383-.199037-.265383-.398074-.530766-.530766-.729803,0-.066346,0-.132691-.066346-.199037,0-.066346-.066346-.132691-.066346-.132691,0-.132691-.066346-.265383-.066346-.331728-.066346-.132691-.132691-.199037-.132691-.265383-.066346-.132691-.066346-.265383-.066346-.331728-.066346-.132691-.132691-.199037-.132691-.331728-.066346-.132691,0-.331728-.066346-.530766,0-.066346-.066346-.066346-.132691-.132691,0-.066346,0-.199037-.066346-.265383s-.199037-.199037-.265383-.398074c-.066346-.066346-.132691-.199037-.199037-.331728-.199037-.265383-.265383-.331728-.663457-.398074-.331728-.066346-.729803,0-.92884-.132691,0-.331728.066346-.796148.132691-1.061531-.132691-.265383-.398074-.597111-.199037-.92884.199037-.066346.398074-.066346.46442-.199037.132691-.066346.132691-.265383.132691-.46442.066346-.199037.066346-.331728.132691-.530766,0-.066346-.066346-.132691,0-.199037.066346-.265383.265383-.132691.46442-.066346.265383.132691.46442.331728.729803.331728.199037-.398074,0-.862494.066346-1.260568.066346-.132691.265383-.265383.398074-.331728.066346-.132691.132691-.265383.199037-.331728.199037-.066346.398074-.132691.663457-.199037.265383-.132691.597111-.265383.862494-.331728.066346.199037.132691.398074.199037.663457.066346.066346.066346.132691.066346.265383,0,.066346-.066346.132691-.066346.199037-.132691.398074-.199037.729803-.331728,1.061531-.199037.199037-.46442.331728-.663457.530766,0,.132691-.066346.265383-.066346.398074.199037-.066346.331728-.199037.530766-.331728.132691-.066346.132691-.132691.199037-.132691.132691,0,.265383.066346.398074.066346.199037-.066346.331728-.331728.597111-.331728.132691,0,.199037.199037.331728.199037.132691.066346.265383,0,.46442-.066346.132691-.066346.265383-.066346.398074-.132691.066346,0,.132691-.132691.199037-.132691.132691-.066346.265383,0,.398074-.132691.331728.132691.862494.066346,1.061531.331728,0,.199037.199037.331728.331728.46442,0,.066346,0,.132691.066346.132691.066346.265383.265383.46442.398074.663457.132691.066346.265383.199037.46442.199037.132691-.265383,0-.729803.265383-.862494.331728.066346.331728.46442.398074.796148.132691.199037.066346.597111.199037.796148.132691,0,.331728,0,.46442-.066346.265383-.066346.331728-.199037.46442-.398074,0-.066346.066346-.132691.066346-.132691.066346-.066346,0-.199037.066346-.265383,0-.066346.066346-.066346.132691-.199037,0,0,.066346-.132691.066346-.199037.132691-.066346.331728-.132691.398074-.331728v-.199037c0-.066346.066346-.132691.066346-.199037.066346-.066346.066346-.132691.066346-.199037.132691-.199037.265383-.331728.398074-.46442.199037-.199037.398074-.46442.597111-.597111v-.398074c-.199037-.132691-.398074.066346-.530766.066346-.331728.066346-.530766-.132691-.729803-.132691-.132691.066346-.066346.265383-.199037.398074-.199037-.066346-.331728.199037-.530766.132691-.066346,0-.132691-.066346-.199037-.066346-.132691-.132691-.597111-.331728-.597111-.46442s.132691-.199037.199037-.265383c.199037-.132691.331728-.199037.46442-.398074.331728-.46442.46442-.862494.729803-1.260568.132691-.199037.265383-.46442.398074-.46442.199037,0,.46442.199037.530766.265383.199037.132691.398074.265383.530766.331728.199037.066346.398074.132691.530766.199037.132691,0,.265383,0,.398074.066346.132691,0,.265383.066346.331728.199037.066346.199037-.199037.398074-.066346.597111.132691.132691.398074.199037.530766.199037.066346-.132691,0-.398074.066346-.530766.066346-.199037.46442-.066346.663457-.132691-.199037-.398074-.597111-.46442-.796148-.796148.132691-.199037.265383-.398074.331728-.597111.199037-.132691.132691-.46442.398074-.530766.132691-.066346.265383,0,.398074,0,.132691-.066346.199037-.132691.265383-.132691.132691-.199037.265383-.398074.46442-.597111.265383-.066346.46442-.066346.796148-.132691.132691,0,.199037-.066346.331728-.066346.066346.066346.199037.132691.331728.199037.066346.066346.199037.132691.331728.132691s.199037-.066346.331728-.066346c.066346-.066346.132691,0,.199037-.066346.132691,0,.199037-.132691.331728-.132691.066346-.199037-.132691-.398074-.132691-.530766-.066346-.199037,0-.46442,0-.663457-.066346-.066346-.132691-.132691-.132691-.199037.132691-.132691.265383-.265383.331728-.46442-.199037-.132691-.331728-.331728-.597111-.331728-.066346,0-.199037.066346-.265383.066346-.132691,0-.199037-.066346-.265383-.132691v-.398074c-.199037-.132691-.46442-.132691-.729803-.199037-.066346,0-.132691.132691-.199037.199037-.132691.132691-.265383.199037-.331728.265383-.066346.199037,0,.331728-.132691.46442h-.331728c-.132691.066346-.265383.199037-.46442.199037-.398074.132691-.597111,0-.862494-.132691-.398074.398074-.796148-.265383-1.127877-.398074-.132691,0-.265383,0-.398074-.066346.066346-.199037.066346-.46442-.066346-.530766-.199037,0-.398074.132691-.530766.199037h-.331728c-.265383,0-.597111,0-.796148-.132691-.066346,0-.199037-.066346-.199037-.066346l-.199037-.199037c-.199037-.066346-.398074.066346-.597111.066346-.132691-.066346-.265383-.331728-.46442-.398074-1.39326.199037-2.720174.46442-4.047087.92884-.132691,0-.265383.066346-.398074.066346-.597111.265383-1.194223.46442-1.791334.796148h-.132691c-.199037.132691-.46442.265383-.663457.331728-.066346.066346-.132691.132691-.199037.132691-.331728.199037-.597111.331728-.862494.530766.066346.132691-.132691.331728-.132691.530766v.265383c-.066346.331728-.265383.663457-.46442.729803-.132691,0-.132691-.132691-.265383-.132691-.132691.066346-.199037.265383-.265383.398074-.066346.066346-.265383.199037-.265383.331728-.066346.265383,0,.530766-.066346.862494-.066346.132691-.199037.199037-.265383.398074-.066346.066346-.066346.132691-.132691.265383,0,.066346-.132691.066346-.132691.199037-.265383.331728-.46442.663457-.398074,1.127877-.132691.199037-.066346.398074-.066346.597111-.066346.132691-.199037.199037-.199037.331728-.066346.265383.066346.331728.132691.46442,0,.132691-.132691.265383-.132691.398074-.066346.331728-.199037.530766-.265383.796148,0,.265383.265383.46442.265383.796148,0,.066346-.066346.132691-.132691.265383-.132691.199037-.199037.265383-.331728.398074-.331728.265383-.597111.132691-.995185,0-.132691,0-.265383.066346-.398074.132691-.199037.132691-.331728.199037-.46442.331728,0,.066346-.066346.132691-.132691.132691-.066346.132691,0,.265383-.066346.331728-.066346.132691-.199037.132691-.331728.199037-.066346,0-.132691.066346-.132691.066346-.331728.265383-.796148.46442-.862494.862494.132691.331728,0,.597111-.066346.796148-.066346,0-.066346.066346-.066346.132691-.265383.398074-.530766.796148-.46442,1.39326-.132691.132691-.199037.199037-.265383.331728,0,.331728-.066346.530766-.265383.530766-.132691.199037-.265383.331728-.331728.530766-.066346.132691-.132691.398074-.132691.530766.066346.199037.199037.331728.331728.530766,0,.132691.066346.265383.066346.331728.132691.331728.132691.46442.066346.862494-.199037.265383-.398074.597111-.597111.92884-.066346.132691-.132691.199037-.199037.331728-.132691.199037-.46442.46442-.46442.729803.265383,1.791334.796148,3.516322,1.525951,5.24131ZM55.401963,43.400718c.265383-.199037.331728.331728.132691.46442-.132691-.066346-.066346-.331728-.132691-.46442ZM55.866383,44.993015l.132691-.132691c.066346,0,.132691-.066346.199037-.132691s.132691-.066346.199037-.066346h0c.066346-.066346.132691,0,.199037,0h.331728c.066346-.066346.199037-.066346.265383-.066346h.132691c0,.066346.066346.066346.066346.066346h0l.132691-.132691h0s.066346-.066346.132691-.066346h0c.066346-.066346.132691-.066346.132691-.066346h0c.066346-.066346.132691-.066346.132691-.066346.066346-.066346.066346-.132691.132691-.132691-.066346.066346-.199037.066346-.331728.066346h0c-.265383-.066346-.331728-.398074-.46442-.597111v-.132691l-.066346-.132691.066346-.066346c.066346-.066346.199037-.132691.331728-.199037h0c0-.066346.066346-.066346.066346-.066346h-.132691c-.066346,0-.132691-.066346-.199037-.066346s-.066346-.066346-.066346-.066346h0c-.066346.066346-.132691.066346-.265383.132691l-.398074.199037c-.066346.132691-.066346.199037-.132691.265383h0c0,.066346-.066346.132691-.066346.199037,0,0,0,.066346-.066346.066346,0,.066346,0,.132691-.066346.199037-.132691.265383-.398074.265383-.729803.331728,0,0-.066346,0-.132691.066346-.066346.132691,0,.199037.066346.265383s.132691.132691.132691.199037c.066346.066346.066346.132691.066346.132691h0c.066346.066346.066346.132691.066346.132691h0l.132691-.132691h0ZM57.657717,49.504522l-.132691-.132691c-.066346,0-.132691.066346-.132691.132691-.066346.066346-.132691.066346-.132691.132691v.132691c0,.066346.066346.132691.066346.199037,0,0,.066346.066346.132691.066346.132691.066346.265383.066346.398074.132691h.132691s0,.066346.066346.066346h.331728c.066346,0,.132691-.066346.265383-.066346h0v-.066346c.066346,0,.132691-.066346.199037-.066346v-.132691h0c-.199037,0-.331728-.066346-.46442-.066346h0c-.132691-.066346-.265383-.066346-.398074-.066346h0c-.199037-.066346-.265383-.132691-.331728-.265383ZM25.878128,43.865138c-2.985556,1.061531-5.70573.398074-8.757632-1.724988-2.786519-1.857679-5.506693-3.914396-7.828792-5.108619,2.653828-.796148,4.644199-1.127877,6.103804-.729803,3.649013.995185,5.108619,4.710544,10.880694,5.772076-.199037.597111-.331728,1.194223-.398074,1.791334ZM16.987805,22.435478c3.649013.597111,5.70573,1.724988,7.032644,3.184593,2.454791,2.653828,2.587482,6.17015,6.63457,7.961484q0,.066346-.066346.132691c-.46442.530766-.92884,1.127877-1.326914,1.724988-4.445162-1.061531-6.568224-2.919211-7.762446-5.573038-.995185-2.123062-.729803-3.980742-4.511507-7.430718ZM12.940718,48.575683c1.658642-1.326914,3.516322-1.791334,6.037458-1.990371,2.985556-.265383,4.511507.862494,6.568224.398074-.066346.331728-.066346.729803-.066346,1.127877-1.724988.995185-3.250939,1.658642-4.975927,1.592297-2.454791-.132691-4.511507-1.260568-7.563409-1.127877ZM23.887757,23.563355c2.786519.663457,4.77689,1.724988,6.369187,3.184593,1.326914,1.260568,1.658642,2.852865,2.985556,4.31247-.398074.265383-.729803.597111-1.061531.92884-2.056717-.663457-3.84805-1.658642-5.042273-3.118248-1.39326-1.791334-1.857679-3.582668-3.250939-5.307656ZM26.077165,52.821807c-7.165335,4.511507-11.809534.796148-18.112375-.597111,9.155706-6.103804,10.217237,1.260568,17.714301-1.791334.066346.796148.199037,1.592297.398074,2.388445ZM27.006005,39.818051c-1.924025-.199037-2.521136.46442-4.710544-.265383-1.990371-.663457-3.715359-2.720174-7.231681-4.445162,6.501878-2.653828,8.62494,1.525951,12.472991,3.516322-.199037.331728-.398074.729803-.530766,1.194223ZM63.031718,67.285169c1.459605,1.326914,2.189408,2.786519,3.184593,3.914396,1.39326,1.658642,3.118248,2.521136,6.103804,3.582668-1.857679-1.924025-2.322099-4.047087-3.980742-5.904767-1.127877-1.326914-3.051902-1.791334-4.246125-2.388445-.331728.265383-.663457.530766-1.061531.796148ZM66.017274,64.764032c1.592297,1.061531,3.715359,2.985556,4.77689,5.904767.729803,2.123062,3.781705,4.77689,8.293212,5.904767-2.255754-2.720174-2.521136-4.31247-3.250939-6.037458-.729803-1.791334-1.592297-3.38363-3.449976-5.042273-1.459605-1.260568-3.84805-1.990371-5.174964-2.056717-.398074.46442-.796148.92884-1.194223,1.326914ZM69.201868,60.584254c2.985556,2.189408,5.772076,4.047087,10.681657,3.184593-1.924025-.862494-3.317285-2.123062-4.77689-3.118248-1.39326-.862494-2.985556-1.525951-5.108619-1.459605-.265383.46442-.46442.92884-.796148,1.39326ZM71.457622,43.002644c4.047087.066346,7.364372-2.587482,8.823978-6.236495-3.449976,3.051902-5.506693,2.786519-7.231681,3.250939-.862494.265383-1.791334.995185-2.189408,1.326914.199037.530766.398074,1.127877.597111,1.658642ZM75.106635,24.359504c-1.592297,1.990371-2.985556,3.84805-5.174964,4.909582-1.924025.995185-3.516322,2.255754-4.179779,3.84805l1.39326,1.592297c4.113433-1.724988,7.629755-5.838421,7.961484-10.349929ZM75.372018,20.113379c-3.449976,2.985556-6.103804,2.653828-8.757632,4.113433-2.189408,1.260568-3.449976,3.84805-3.649013,6.369187.132691.199037.331728.331728.530766.46442.265383.199037.530766.46442.796148.729803,2.521136-3.582668,5.374001-3.250939,7.961484-5.440347,1.061531-.862494,2.521136-2.255754,3.118248-6.236495ZM72.054733,52.490079c3.781705.663457,7.298027.199037,10.615311-1.791334-1.990371.132691-4.31247-.46442-6.302841-.46442-1.525951,0-2.985556.265383-4.113433.663457-.066346.530766-.066346,1.061531-.199037,1.592297ZM82.935427,31.458493c-4.710544,1.791334-6.17015,1.061531-9.023015,1.924025-2.189408.663457-3.914396,2.123062-4.975927,3.914396.398074.663457.796148,1.326914,1.127877,2.056717,2.454791-1.260568,4.975927-1.194223,7.098989-2.056717,2.056717-.862494,3.649013-2.720174,5.772076-5.838421ZM72.320116,48.575683c2.388445-.597111,3.516322.663457,6.103804.995185s6.103804-.398074,8.62494-2.786519c-3.516322.066346-4.909582-1.39326-8.425903-1.924025-2.653828-.46442-5.174964.132691-6.568224,1.061531.132691.862494.199037,1.791334.265383,2.653828ZM70.86051,57.200623c.92884.199037,1.857679.530766,2.786519,1.061531.92884.46442,1.857679,1.194223,2.852865,2.056717,2.189408,1.924025,4.577853,3.118248,9.023015,1.724988-3.914396-2.454791-5.307656-4.975927-7.032644-5.838421-1.857679-.92884-5.506693-1.127877-7.165335-.46442-.132691.530766-.265383.995185-.46442,1.459605ZM28.93003,12.815352c3.184593,1.658642,5.374001,3.980742,6.501878,6.700915,1.194223,3.051902.862494,5.70573,2.852865,8.226866-.663457.331728-1.326914.663457-1.924025,1.061531-2.985556-1.592297-4.378816-3.781705-4.843236-6.302841-.663457-3.516322-.265383-6.17015-2.587482-9.686472ZM35.166526,16.331674c2.786519,1.791334,4.909582,4.378816,5.70573,6.435533.46442,1.127877.597111,2.322099.796148,3.715359-.398074.132691-.862494.265383-1.326914.46442-1.127877-.597111-2.189408-1.724988-2.786519-3.118248-1.127877-2.653828-.663457-4.31247-2.388445-7.497064ZM45.649146,9.232685c1.326914,1.525951,2.056717,3.38363,2.388445,6.103804.265383,2.189408-2.587482,6.17015-1.127877,10.283583-.796148.066346-1.592297.132691-2.322099.265383-1.525951-2.189408-2.056717-4.77689-1.724988-7.231681.46442-3.649013,2.454791-6.103804,2.786519-9.421089ZM51.421221,20.644145c0,2.255754-.862494,3.449976-.92884,5.042273-.530766-.066346-.995185-.066346-1.525951-.066346-.530766-1.260568-.995185-2.388445-.92884-3.582668.132691-2.189408,1.260568-4.445162,1.194223-8.293212,1.791334,2.322099,2.189408,5.904767,2.189408,6.899952ZM53.411592,26.150837c-.597111-7.629755,5.042273-7.762446,7.696101-14.463362.862494,2.454791.862494,6.17015-.398074,8.293212-2.189408,3.84805-3.184593,3.449976-4.577853,6.966298-.92884-.331728-1.791334-.597111-2.720174-.796148ZM59.979816,28.671974c.331728-.796148,1.061531-1.525951,1.658642-2.521136.796148-1.459605,1.592297-4.445162.663457-7.497064-.530766,1.857679-1.061531,3.980742-2.123062,5.042273-1.194223,1.194223-1.791334,2.653828-1.658642,4.246125.46442.199037.995185.46442,1.459605.729803Z" fill="#fff"/></g></g></g></svg>