<?xml version="1.0" encoding="UTF-8"?><svg id="Layer_2" xmlns="http://www.w3.org/2000/svg" width="97.265386" height="97.265386" xmlns:xlink="http://www.w3.org/1999/xlink" viewBox="0 0 97.265386 97.265386"><defs><clipPath id="clippath"><circle cx="48.632693" cy="48.632693" r="48.632693" fill="none"/></clipPath></defs><g id="Layer_2-2"><g id="INDEPENDENT"><g clip-path="url(#clippath)"><g id="INDEPENDENT-2"><circle cx="48.632693" cy="48.632693" r="48.632693" fill="#181818"/><path d="M22.282596,32.946902v31.371582h-6.632812v-31.371582h6.632812Z" fill="#fff"/><path d="M51.834353,32.946902v31.371582h-5.729004l-13.648438-19.745117h-.22998v19.745117h-6.632812v-31.371582h5.820801l13.541504,19.72998h.275391v-19.72998h6.602539Z" fill="#fff"/><path d="M66.266971,64.318484h-11.121094v-31.371582h11.212891c3.155273,0,5.87207.625488,8.149414,1.876465s4.03125,3.045898,5.261719,5.384277c1.230469,2.338867,1.845703,5.136719,1.845703,8.394043,0,3.268555-.615234,6.076172-1.845703,8.425781-1.230469,2.348633-2.992188,4.150391-5.285156,5.407227-2.291992,1.255859-5.03125,1.883789-8.217773,1.883789ZM61.778689,58.635867h4.212891c1.959961,0,3.612305-.350586,4.955078-1.049805s2.353516-1.787109,3.033203-3.262695c.678711-1.475586,1.018555-3.382812,1.018555-5.72168,0-2.317871-.339844-4.211914-1.018555-5.682617-.679688-1.470703-1.6875-2.552734-3.025391-3.247559-1.337891-.694336-2.987305-1.041504-4.948242-1.041504h-4.227539v20.005859Z" fill="#fff"/></g></g></g></g></svg>