<?xml version="1.0" encoding="UTF-8"?><svg id="Layer_2" xmlns="http://www.w3.org/2000/svg" width="97.265386" height="97.265386" xmlns:xlink="http://www.w3.org/1999/xlink" viewBox="0 0 97.265386 97.265386"><defs><clipPath id="clippath"><circle cx="48.632693" cy="48.632693" r="48.632693" fill="none"/></clipPath></defs><g id="LOGOS"><g id="LAB"><g clip-path="url(#clippath)"><g id="LABOUR"><circle cx="48.632693" cy="48.632693" r="48.632693" fill="#e4003b"/><path id="path2566" d="M37.701067,80.578983c-.388568.08785-.70618.378431-.935941.658876h5.777832c-.591298-1.111641-1.304236-2.500349-1.388707-2.902431,0,0-2.645639,2.057719-3.453184,2.243556" fill="#fff"/><path id="path2570" d="M28.843797,78.519997c.037167-.58792,0-2.574683-.368295-3.013934,0,0-.219625,1.213007-.402083,1.618469-.125017.270308-1.169082,2.615229-1.834715,4.115438h3.351819c-.094608-.280445-.212867-.608193-.304096-.807545-.185837-.405462-.479797-1.324509-.442629-1.912429" fill="#fff"/><path id="path2594" d="M73.408105,65.971565c-.442629.919047-1.138672,1.101505-1.581301,1.17584-.43925.074335-.58792.331127-1.101505.956214-.513585.625087-1.138672,1.577923-3.382228,4.852027-2.240177,3.270727-8.967466,2.020552-12.71461,1.250175-3.747143-.773757-4.301274-1.949596-4.595235-4.558068-.29396-2.611851,1.618469-4.155985,2.169222-4.412777.550753-.256793,2.976766-1.213007,4.483733-2.534137s3.93298-1.581301,4.301274-1.581301c.364916,0,1.358298-.074335,4.666191-.442629,3.307894-.364915,6.652955.516964,8.930299,1.216386,1.919186.58792,5.764317,2.736868,7.609168,3.774175V21.026111c0-2.760521-2.236798-5.000695-5.000697-5.000695h-5.122336c1.831336,1.54751,4.591856,4.6324,5.054759,7.72067.581162,3.855266-3.726871,5.139229-4.08165,5.264246-.3514.125016-.503449.202732-.503449.202732-1.283963-2.669291-.125017-3.828238.405462-4.608752.5271-.780514-.253414-1.158947-1.060959-1.513724-.804166-.351401-1.081232-.702801-1.206249-1.131915-.128396-.429113-.202731-1.033927-.503449-1.662393-.304097-.631846-.88188-.729833-1.412359-.780514-.527101-.050684-.956214-.354781-1.260311-.429117-.300718-.074333-.753483-.074333-.753483-.074333l.023652.429113s-1.459663-.756862-2.872022-1.790789c-1.003519-.736591-1.267068-.976489-1.665773-1.625226h-2.223283c.121639.591296.324369.932562.513585,1.19611.253414.354781-.429114,1.310995-1.081232,1.510347-.655498.202732-2.169222-.273688-2.169222-.273688-2.138811.577785-2.064477.226384-4.60875.601437-2.544274.378429-2.99704,2.067854-3.449805,3.098404-.456145,1.033927.351399.655498-.858228,2.368574s-3.804584,2.270586-4.862163,2.243554c-1.057582-.023652-.729833-.152048-.679149,3.17274s.527101,2.872023,1.638741,3.149088c1.108263.277065,1.533999-1.209627,1.713076-1.436012.1757-.226381.199352-.530478-.050681-.55413-1.229902-.121639-1.966493-.378433-2.31789-.706181-.351401-.327749.152045-.979866.72983-1.385328.577782-.402081,2.31789-1.334644,2.821339-1.561028.503448-.226384,1.96649-.702801,2.621987-.831198.655496-.125016.753484.452768.90553.756862.131775.26355.050684.554133.628467.479797,3.43291-.449385,4.183015.097988,4.409398.074336.226383-.027032.53048-.277065.581162-.706181.047304-.425733-1.158945-.679146-1.713076-.831195s-3.73025-.202732-3.73025-.202732c0,0-.804166-.628466-.956214-2.13881-.152047-1.510347,3.652537-3.047724,5.010834-3.426153,1.361676-.378433,4.662812-.85823,8.413334-.354781,3.757281.503449,5.341961,2.848371,5.997458,5.419675.655497,2.567926-1.334645,3.372092-1.638742,3.399121-.300718.023652-.956214.655498-1.23328,1.131915-.277066.479797-1.158946,1.135295-1.787411,1.513724-.631845.375052-1.588059,1.209631-1.588059,1.209631,0,0-.023652.628466-.807545.932562-.780514.300717-1.358297-1.287343-1.838094-2.344922-.476418-1.057579-.905532-1.513724-1.310994-2.341542-.402083-.831198-1.057581-1.010278-1.307615-1.010278-.253413,0-.327749.429117-.327749,1.108263,0,.68253-.628466,1.361676-1.689425,2.040825-1.057579.68253-3.19977-.476417-3.449805-.577782-.253413-.101368-1.459662-.581162-1.814441-.73321-.351401-.148671-.479797-.375052-.780514-.729833-.304097-.351401-.85485.253416-1.033929.378433-.1757.128397-.425735.351401.02703.932562.452767.577782,1.888777,1.057579,2.567926,1.260311.682526.199352,1.43601,1.108263,1.841473,1.436012.402083.327746.831196.631843,1.108261.452765,1.871884-1.192736,4.155985-1.513724,4.531037-1.513724.378431,0,1.96649.027029,1.185976,2.446287-1.071096,3.321408-4.561447,4.003935-7.25439,4.105302-2.696321.101365-4.081649-.577785-4.233697-.577785-.14867,0-.1757.300717-.101366.300717.077714,0,.959593.631846,1.615091,1.084611.652117.452767,1.76038,1.158945,2.216526,1.158945.452765,0,1.939459-.503448,2.442908-.631844.503448-.125018,1.736728-.425735,2.719973-.729832.983245-.300717,4.760798-3.348439,5.439947-4.030968.682528-.679146,1.209628-2.267206,1.463042-2.341542.250034-.074333.729831.327749,1.108263.378433.378431.047304,1.182597-1.084611,1.385328-1.892157.202731-.804166.253414-.90553.479797-.956214.226383-.050681.300718.503449.300718.503449,0,0,.277066,1.41236.152048,3.375469-.125017,1.966493-.304097,2.469942-.88188,4.132334-.581162,1.662394-2.567925,1.838095-3.223422,2.040825s-2.294239.72983-3.453184.932562c-1.158946.199352-1.76376-.429115-2.544274-.780516-.277065-.125016-1.787411-.378431-1.912429.050684-.543994,1.841473,2.719973,2.844991,3.247074,2.970008,3.456563.824439,8.264666-.831196,8.514701-2.895673.38181-3.111919.729831-3.476837,1.135293-3.929602.402083-.452765,1.486694-.074336,1.486694-.074336.402083-.405462,2.29086-1.790789,2.29086-1.790789,0,0,.604814-.300717.300718-.780514-.300718-.476417-.503449-2.415878,1.892156-2.165842,2.392225.253413,3.196391,3.625505,3.196391,3.625505,0,0,.959593,1.993522.277066,7.055037-.679149,5.061517-7.43009,10.254808-13.576216,12.190889-6.146127,1.939459-9.068832,1.716455-9.825695,1.716455-.753484,0-2.267208-.604814-2.770655-.70618-.503449-.101365-1.787412-.959593-2.216526-1.135293s-1.912429-.932562-2.240177-1.081232c-.327749-.152048-1.486692-.881879-2.165842-1.361677-.682526-.476417-.858227-.983245-1.084611-1.486694-.226384-.503448-1.459663-1.483314-1.611712-1.61171-.152048-.125018,0-.327749,0-.327749,1.40898.604814,10.930578,1.939459,11.68744,1.966491.756862.023652,4.206667.125016,4.659434.125016s1.26031.277067,1.283962-.304095c.027031-.577783-2.64226-.979868-2.946357-1.006898-.300717-.023652-1.635364-.050682-2.618609-.1757-.983245-.125016-3.351819-3.804584-3.679566-4.281001-.32437-.479797-.452767-.354779-1.057581-.655498-.604814-.304095-2.719973-1.939459-2.973388-2.219904-.250034-.273686.202731-1.331267-.047304-1.608332-.253413-.280445-1.060958.172322-1.696183.459524-1.503587.679148-2.057717-.097988-2.057717-.097988l-2.05772-2.159084-.489935,1.077854s5.193294,4.216803,6.663093,5.392643c1.473178,1.17584.391946,1.567787.391946,1.567787,0,0-1.077852,1.17584-1.469798,1.273826-.391947.097986-3.527521-.489933-5.977185-1.17584-2.449667-.685907-3.233561-1.469799-5.683225-3.625505-2.449667-2.155706-3.429533-7.740943-3.135574-8.822174.29396-1.077854.391947-2.743627.195975-3.233561-.195975-.489931-.587922-2.155704.29396-2.155704s1.567785,1.959732,3.625505,4.311412,4.311412,3.13557,5.19329,2.645639c.881879-.489935-.29396-1.959732-.783894-2.841614-.489931-.881879-.391944-1.175838-2.351676-3.625505-1.959736-2.449664-.587922-4.311412-.195975-5.19329s1.567785-2.547651,1.861748-5.294655c.158806-1.466421.736587-2.456424,1.588057-3.331546h-20.891424c-2.763901,0-5.000695,2.240174-5.000695,5.000695v17.779505c1.365053.456144,4.399259,1.500208,4.943254,1.946216.706178.577783,6.963808,5.304794,6.72729,13.778948-.023652.905531.283822,1.199492.679149,1.638742.226381.250035,2.419255,2.368573,2.040825,3.676188-1.006898-1.486694-2.013796-2.267208-2.317893-2.419256-.300717-.152048-.628466-.327748-.854847.229762-.226384.550752-.429113,2.040825-3.426153,1.611711-2.747007-.395326-5.010833-.861607-7.791626-4.635781v21.442177c0,2.76052,2.236794,5.000696,5.000695,5.000696h3.987043c.439248-.895395.689284-1.473178,1.020409-2.240177.47642-1.101505,2.020554-5.034485,2.757141-6.284659.73321-1.250174,1.800927-2.902431,1.800927-2.902431,0,0-.331126-2.611851-.25679-4.118817.070956-1.506967.881879-4.852028.881879-4.852028,0,0,.29396-.547373.145291-1.138672-.145291-.58792-.368295-1.209628-.219627-2.277345.145291-1.064337.625089-2.719973,1.469801-3.490351.844712-.770377,1.432631-1.213007,1.909048-1.17584.479797.037168,1.213008.73321,2.169222,2.976766,0,0-.513583.070956-.919045-.037167-.402085-.111502-.145291.219625-.070959.331127.070959.108123,1.027173.844712.550753,1.763759-.479794.919047-2.770655,3.682946-2.280724,4.335064.331129.442629.516967.037167,1.03055-.513585.513587-.550752,1.652258-1.875261,1.838096-1.800927.182458.074335-.368295,1.986764-2.351679,4.044483,0,0,.550753.256793,0,1.283963-.550753,1.030549-1.361679,2.094887-1.469801,2.314512-.111502.223004-.111502.736589.219627.442629.331126-.29396,3.453182-2.79093,6.504282-2.79093,2.206388,0,2.392226.679149,2.79431.88188.364915.182458.919045.807545,1.02717,1.138672.111502.327748.256793.584541.807543.770378.554133.182458,2.35506.625087,2.611853,2.976766,0,0,.956213,1.17584-.223004,2.976766,0,0,9.210743-1.240037,13.116691,7.386164h18.269439c2.763899,0,5.000697-2.240177,5.000697-5.000696v-9.643236c-1.561028-.922426-4.939877-1.341403-5.40278-1.341403-.554131,0-2.939599-.037167-3.382228.88188M33.277512,45.086896c-.29396.074336-.631846-.067577-1.094748.395326-.148668.145291-.331126.46966-.341263.790651-.027032.956214-2.094886-.037168-2.351679-.118259-.658875-.206111-1.689425-.837955-3.966768-3.40926-2.280724-2.574683-3.08827-7.86596-3.162603-9.960846-.074336-2.094889.844712-5.916366,3.564684-9.51822,2.719975-3.601853,7.4605-4.226942,8.085588-4.226942.625085,0,1.213008.074336,1.250174.442631s-.074336.368295-.074336.807543c0,0,.331129.807546.219627,2.094889-.250036,2.936218-3.047724,5.220322-4.409399,6.358994-1.358299,1.138672-1.213008,2.645639-1.175838,4.152606.037166,1.503587,1.213004,6.504284,1.469798,7.348996s1.919186,3.75728,2.179359,4.125574c.25679.368295.097984.641982-.192595.716316M40.572446,60.501208c-1.486692-1.05758-2.341542-3.047722-3.247072-5.619027-.908911-2.567925-1.436012-4.358715-1.841473-5.514282-.402085-1.158945-.679149-1.260311-.72983-1.564407-.050684-.300718.050681-.476419.1757-.601435,0,0,2.216522.351399,4.057996,1.182597,1.838096.831196,1.787412.983245,3.372092,2.040825,1.58806,1.057579,2.219906,3.247073,2.645639,4.054619.429113.807545,1.895536,1.422496,2.098266,1.523861.202731.097987.861605.577783.861605.577783,6.399541,2.442908,10.69406,2.635503,10.89679,2.686185.202731.047304.300717.226383.300717.226383-.604814.929184-6.298175,1.108263-6.298175,1.108263,0,0-1.963111-.050683-5.186533.88188-3.226801.929183-5.619027.074335-7.105722-.983245" fill="#fff"/></g></g></g></g></svg>