<?xml version="1.0" encoding="UTF-8"?><svg id="Layer_2" xmlns="http://www.w3.org/2000/svg" width="97.265386" height="97.265386" xmlns:xlink="http://www.w3.org/1999/xlink" viewBox="0 0 97.265386 97.265386"><defs><clipPath id="clippath"><circle cx="48.632693" cy="48.632693" r="48.632693" fill="none"/></clipPath></defs><g id="LOGOS"><g id="LIB_DEM"><g clip-path="url(#clippath)"><circle cx="48.632693" cy="48.632693" r="48.632693" fill="#faa61a"/><path d="M39.34885,51.01867s-.801766-.350103-3.018082-.640423c0,0-4.4605-.340034-6.838362-1.349418,0,0-4.658257-1.80365-5.785051-2.67591,0,0,.030418.045637.088482.1322.84891.784837,1.727598,1.597961,2.672916,2.318516-.945317-.720555-1.824005-1.533679-2.672916-2.318516.516154.812908,3.437189,5.145694,7.863177,6.71323,0,0,2.498279,1.031668,5.682628.902894,0,0,3.18992-.467088,4.062187,1.249787,0,0,.027842-.07906.059136-.210835.186825-.706418.550862-3.038862-2.114116-4.121526Z" fill="#fff"/><path d="M33.351029,67.28409s-1.896428,5.034705-3.844695,6.307633c0,0-1.393992,1.156584-3.546451,1.031243-.173551-.013502-.349037-.027855-.530723-.05807,0,0,1.948921,1.089523,5.502224.944252,0,0,3.786422-.159198,4.80394-4.473989,0,0,1.211444-6.506678,3.277133-7.596841,0,0-.130709-.020996-.348815-.027208-.931181-.016288-3.568094.283251-5.312614,3.872982Z" fill="#fff"/><path d="M65.683471,55.350815c-3.952271-1.177148-6.598181-.532436-6.598181-.532436-2.652332.698918-4.534623,1.948274-5.246612,2.471928-.20461.154053-.320738.247471-.320738.247471,3.697718-.857901,7.703318,1.474549,7.703318,1.474549,3.342913,1.585531,7.317886.983026,7.317886.983026,9.572114-1.758441,14.396847-8.859908,14.579827-9.129455.006643-.006637.007284-.013712.007284-.013712-2.623208,2.007201-7.9356,3.786638-7.9356,3.786638-4.419554,1.968204-9.507184.711989-9.507184.711989Z" fill="#fff"/><path d="M61.265407,42.806256s3.374181-2.893598,6.440035-3.830346c0,0-.073482-.107775-.314526-.208049-.281322-.118485-.807337-.21876-1.720732-.066205,0,0-1.526611.252398-3.9317-.377102,0,0-5.903101-1.280424-8.664721,2.55035,0,0-2.01083,2.526997-3.762843,6.771938,0,0-3.214139,6.728014-7.54992,9.462198,0,0-4.551336,3.509173-10.741984,4.388502,0,0-5.173549.961174-9.506988-.529657,0,0-5.428938-1.300776-8.298539-3.894194,0,0-.632714,2.949301.799621,5.348172,0,0,.079707.203119.252827.49387.501586.851474,1.77537,2.529998,4.166087,2.71683,0,0,2.339087.42231,5.986679-1.12508,0,0,6.112013-2.21782,9.842085-2.30417,0,0,9.053605.065995,11.933275-1.287489,0,0,4.481476-1.976135,6.720076-4.788738,2.233029-2.804037,2.813891-5.157483,3.533818-6.66245,0,0,2.172598-4.513199,4.817449-6.65838Z" fill="#fff"/><path d="M29.309858,33.933274s4.515543,2.580562,7.827175,3.858842c0,0,8.524164,3.030725,8.524164,8.560804,0,0,.321392,3.039078.051198,4.243015,0,0,.007506-.013927.021434-.034923.342603-.463661,4.245363-5.893898,2.189965-10.762767,0,0-1.584675-3.518383-8.32319-6.554891,0,0-7.47815-3.213273-11.017958-6.162365,0,0-5.893672-5.160049-6.322835-9.651821,0,0-.006003.000642-.006643.00707-.093203.166267-2.077486,3.786424.059136,8.765638,0,0,1.563463,4.39471,6.997554,7.731399Z" fill="#fff"/><path d="M22.058405,40.154775s2.267737,2.12954,4.700458,3.13914c0,0,3.910266,1.671238,7.391368,2.630698,0,0,6.932624,1.401054,8.080642,4.295077,0,0,1.098088,1.730161.799621,3.387468,0,0,.031072-.058489.073064-.153196.297172-.676634,1.359481-3.408895.369818-6.242284,0,0-.501586-2.346371-6.349631-4.565048,0,0-8.17-2.82739-10.85768-4.59183,0,0-5.597154-2.892954-7.355811-7.450286,0,0-.065348.691634-.013927,1.736157.103286,2.086905.668507,5.58986,3.162078,7.814104Z" fill="#fff"/><path d="M30.305955,66.819572c1.643602-1.948064,2.863389-2.733543,3.56744-3.052149.166267-.058921.322464-.131769.495597-.183196.10649-.021637.17291-.034923.17291-.034923-.014359-.008356-.034498-.009213-.049067-.009854-2.952093-.498585-7.508791,2.923591-7.508791,2.923591-2.54371,1.657954-4.71589,2.302019-4.71589,2.302019-2.848807.75013-4.832436-.363383-5.4793-.806265-.145474-.100696-.225181-.166908-.225181-.166908.69185,1.097016,1.487823,1.903281,1.487823,1.903281,2.852038,3.176849,6.128308,2.305236,6.128308,2.305236,2.267737-.640639,6.12615-5.180833,6.12615-5.180833Z" fill="#fff"/><path d="M87.383623,38.736151c-.001295.006856-.007506.007712-.01415.014568-.13883.183196-.305529.379671-.492576.574006-1.597961,1.65731-4.695319,3.671795-4.695319,3.671795-3.772926,2.82739-8.853272,2.993441-8.853272,2.993441-6.307848-.429379-8.530808.449521-8.530808.449521-4.999566,1.657735-8.256338,7.057334-8.256338,7.057334.110348-.066636.217478-.138412.328035-.201838,4.382284-2.719831,7.711256-2.138538,7.711256-2.138538,3.63386.407951,6.169855.290967,6.169855.290967,6.29243-.457018,10.253476-3.297691,10.253476-3.297691,6.582959-4.166309,6.489115-9.565048,6.489115-9.565048-.034067.051424-.071991.100275-.109275.151483Z" fill="#fff"/></g></g></g></svg>