<?xml version="1.0" encoding="UTF-8"?><svg id="Layer_2" xmlns="http://www.w3.org/2000/svg" width="97.265386" height="97.265386" viewBox="0 0 97.265386 97.265386"><g id="LOGOS"><g id="Ratepayers_Residents"><circle cx="48.632693" cy="48.632693" r="48.632693" fill="#ff8faa"/><path d="M37.210218,64.312208v-31.35903h12.372091c2.368621,0,4.391394.421145,6.070869,1.263116,1.679475.84229,2.960777,2.031386,3.843905,3.567608.883128,1.536541,1.324692,3.340764,1.324692,5.412989,0,2.082434-.449221,3.871662-1.347664,5.366727-.898443,1.495384-2.197611,2.641409-3.897505,3.437755s-3.753295,1.19452-6.162755,1.19452h-8.283794v-5.32876h7.211789c1.265987,0,2.317574-.173563,3.154759-.520688.837185-.346807,1.462522-.867495,1.876009-1.561746.412212-.694251.618956-1.556641.618956-2.587808,0-1.041377-.206744-1.919081-.618956-2.633751-.413488-.714351-1.041377-1.258011-1.883667-1.630661s-1.901533-.558974-3.177411-.558974h-4.471156v25.938702h-6.630162ZM54.144713,50.041136l7.795011,14.271072h-7.320266l-7.624958-14.271072h7.150212Z" fill="#fff"/></g></g></svg>